<?xml version="1.0" encoding="iso-8859-1"?>
<!-- Generator: Adobe Illustrator 19.0.0, SVG Export Plug-In . SVG Version: 6.00 Build 0)  -->
<svg version="1.1" id="Layer_1" xmlns="http://www.w3.org/2000/svg" xmlns:xlink="http://www.w3.org/1999/xlink" x="0px" y="0px"
	 viewBox="0 0 512 512" style="enable-background:new 0 0 512 512;" xml:space="preserve">
<g>
	<g>
		<circle cx="383.092" cy="139.369" r="18.415"/>
	</g>
</g>
<g>
	<g>
		<path d="M512,108.676l-36.012,7.203c-15.35-50.305-62.193-87.003-117.45-87.003c-67.695,0-122.77,55.073-122.77,122.77
			c0,9.342,1.053,18.441,3.04,27.19L13.795,30.963L6.292,53.826c-21.371,65.134,17.236,124.475,33.433,145.498
			c-2,9.165-4.136,23.542-2.884,39.817c2.888,37.514,21.813,67.408,54.731,86.455c7.253,4.198,14.79,7.534,22.487,10.025
			c7.471,16.258,17.945,31.193,31.112,44.057c8.238,8.049,17.265,15.02,26.892,20.856c-6.827,5.576-15.539,8.928-25.022,8.928
			h-27.39c-7.602-21.434-28.071-36.831-52.079-36.831v36.831c10.154,0,18.415,8.261,18.415,18.416s-8.261,18.415-18.415,18.415
			v36.831c24.008,0,44.477-15.397,52.079-36.831h27.39c24.76,0,46.8-11.842,60.78-30.151c12.308,3.505,25.122,5.404,38.175,5.584
			c0.691,0.009,1.379,0.013,2.07,0.013c38.982,0,75.647-15.025,103.437-42.439c28.287-27.904,43.866-65.153,43.866-104.885
			c0-1.872-0.043-3.743-0.114-5.609c42.341-13.297,74.866-48.962,83.676-93.081L512,182.339l-24.554-36.832L512,108.676z
			 M110.019,293.715c-21.908-12.676-34.141-31.607-36.36-56.269c-1.792-19.928,3.639-36.445,3.667-36.533l3.511-10.299l-7.268-8.067
			c-0.135-0.15-13.607-15.228-24.154-37.757c-8.92-19.053-13.1-37.317-12.516-54.571l197.782,129.978
			c-2.36,14.553-7.973,28.456-16.486,40.687C188.99,302.845,147.54,315.422,110.019,293.715z M325.637,353.079
			c-21.211,20.926-49.34,32.211-79.139,31.818c-28.303-0.385-55.148-11.597-75.589-31.565c-4.18-4.085-7.98-8.456-11.42-13.05
			c4.827-0.552,9.628-1.432,14.371-2.663c28.587-7.423,54.37-26.68,74.564-55.693c9.795-14.071,16.781-29.763,20.694-46.25
			c22.408,23.831,54.203,38.74,89.418,38.74C358.536,304.213,346.852,332.151,325.637,353.079z M358.538,237.585
			c-47.387,0-85.939-38.552-85.939-85.939s38.552-85.939,85.939-85.939c47.387,0,85.939,38.552,85.939,85.939
			S405.924,237.585,358.538,237.585z"/>
	</g>
</g>
<g>
</g>
<g>
</g>
<g>
</g>
<g>
</g>
<g>
</g>
<g>
</g>
<g>
</g>
<g>
</g>
<g>
</g>
<g>
</g>
<g>
</g>
<g>
</g>
<g>
</g>
<g>
</g>
<g>
</g>
</svg>
